<svg width="15" height="8" viewBox="0 0 15 8" fill="none" xmlns="http://www.w3.org/2000/svg">
<path d="M14.2367 1.28614C14.2407 1.43548 14.2113 1.58384 14.1505 1.7203C14.0897 1.85677 13.9991 1.97787 13.8854 2.07473L8.00203 7.04619C7.82665 7.19749 7.60419 7.28321 7.37263 7.28873C7.14107 7.29424 6.91477 7.2192 6.73239 7.07642L0.615068 2.22067C0.406868 2.05584 0.272674 1.81505 0.242006 1.55128C0.211339 1.28751 0.28671 1.02236 0.45154 0.814161C0.616369 0.605961 0.857154 0.471767 1.12092 0.4411C1.3847 0.410433 1.64985 0.485803 1.85805 0.650633L7.32293 4.99177L12.5786 0.545403C12.7224 0.419661 12.8993 0.337751 13.0882 0.309366C13.2771 0.280981 13.4702 0.307308 13.6446 0.385234C13.8191 0.46316 13.9675 0.589421 14.0725 0.749079C14.1774 0.908737 14.2344 1.09511 14.2367 1.28614Z" fill="black"/>
</svg>
